<mxfile host="app.diagrams.net" modified="2024-05-19T05:42:18.048Z" agent="Mozilla/5.0 (Macintosh; Intel Mac OS X 10_15_7) AppleWebKit/537.36 (KHTML, like Gecko) Chrome/124.0.0.0 Safari/537.36" version="24.4.2" etag="RN8_BJAZuMSsT41G9Rkh" type="github">
  <diagram name="페이지-1" id="Vpc-m4gke1At63cMwJc0">
    <mxGraphModel>
      <root>
        <mxCell id="0" />
        <mxCell id="1" parent="0" />
      </root>
    </mxGraphModel>
  </diagram>
</mxfile>
